<svg width="55" height="17" viewBox="0 0 55 17" fill="none" xmlns="http://www.w3.org/2000/svg">
<path d="M2.222 13.187L3.399 9.689L0.561 7.786H4.037L5.28 4.035L6.545 7.786H9.999L7.161 9.689L8.36 13.187L5.28 10.954L2.222 13.187Z" fill="#FE554A"/>
<path d="M13.222 13.187L14.399 9.689L11.561 7.786H15.037L16.28 4.035L17.545 7.786H20.999L18.161 9.689L19.36 13.187L16.28 10.954L13.222 13.187Z" fill="#FE554A"/>
<path d="M24.222 13.187L25.399 9.689L22.561 7.786H26.037L27.28 4.035L28.545 7.786H31.999L29.161 9.689L30.36 13.187L27.28 10.954L24.222 13.187Z" fill="#FE554A"/>
<path d="M35.222 13.187L36.399 9.689L33.561 7.786H37.037L38.28 4.035L39.545 7.786H42.999L40.161 9.689L41.36 13.187L38.28 10.954L35.222 13.187Z" fill="#FE554A"/>
<path d="M46.222 13.187L47.399 9.689L44.561 7.786H48.037L49.28 4.035L50.545 7.786H53.999L51.161 9.689L52.36 13.187L49.28 10.954L46.222 13.187Z" fill="#FE554A"/>
</svg>
